<svg width="400" height="400" xmlns="http://www.w3.org/2000/svg"
     stroke="black" stroke-width="2" fill="white">

    <polygon points="
      197,50
      197,30
      185,30
      185,25
      197,25
      197,15
      202,15
      202,25
      214,25
      214,30
      202,30
      202,50"/>

    <path d="
        M 60 200
        Q 50,40 150,120
        Q 200,-20 250,120
        Q 350,40 340,200
        L 60 200
      "/>

    <polygon points="
      100,320
      60, 200
      150,150
      250,150
      340,200
      300,320"/>

    <!-- plinth -->
    <polygon points="100,320 300,320 340,380 60,380"/>
</svg>