<svg width="400" height="400" xmlns="http://www.w3.org/2000/svg" stroke="white" stroke-width="2" fill="currentColor">

    <path d="
    M 150,320
    L 150,100
    L 80,100
    C 60,120 40,90 80,60
    C 90,50 80,40 120,40
    A 5 1 20 0 0 100,30
    Q 120,20 145,40
    C 350,60 210,210 220,210
    Q 220,260 250,320
    "/>

    <path d="
    M 58,100
    Q 65,90 80,90
    "/>

    <!-- mane -->
    <line x1="188" y1="68" x2="200" y2="52"/>
    <line x1="205" y1="78" x2="228" y2="65"/>
    <line x1="215" y1="92" x2="243" y2="80"/>
    <line x1="220" y1="110" x2="255" y2="105"/>
    <line x1="220" y1="130" x2="255" y2="130"/>
    <line x1="215" y1="150" x2="248" y2="155"/>

    <!-- eye -->
    <circle r="1" cx="96" cy="52"/>

    <!-- plinth -->
    <polygon points="150,320 250,320 330,380 70,380"/>
</svg>