<svg width="400" height="400" xmlns="http://www.w3.org/2000/svg"
     stroke="white" stroke-width="2" fill="black">

    <!-- crown -->
    <path d="M 80,10 Q 200,160 320,10 L80,10"/>

    <path stroke-width="4" d="
    M 83,10
    Q 109,50 125,13
    Q 145,50 165,13
    Q 185,50 205,13
    Q 225,50 245,13
    Q 265,50 285,15
    Q 290,50 318,10
    "/>


    <rect width="100" height="15" y="75" x="150"/>

    <polygon points="
      150,320
      80, 140
      150,90
      250,90
      320,140
      250,320"/>

    <!-- plinth -->
    <polygon points="150,320 250,320 290,400 110,400"/>
</svg>