<svg width="400" height="400" xmlns="http://www.w3.org/2000/svg" stroke="white" stroke-width="5" fill="currentColor">

    <path d="
    M 150,340
    C 90,300 150,150 150,100
    L 80,150
    Q 50,150 60,110
    Q 120,20 145,30
    Q 170,10 110,20
    Q 170,-20 195,30
    C 400,40 230,300 240,230
    Q 240,260 300,340
    "/>

    <path d="
    M 58,130
    Q 60,120 85,100
    "/>

    <g> <!-- mane -->
        <line x1="200" y1="78" x2="262" y2="50"/>
        <line x1="205" y1="95" x2="280" y2="65"/>
        <line x1="210" y1="115" x2="292" y2="90"/>
        <line x1="212" y1="140" x2="294" y2="120"/>
        <line x1="210" y1="170" x2="294" y2="150"/>
        <line x1="210" y1="200" x2="280" y2="188"/>
    </g>

    <!-- eye -->
    <ellipse fill="white"  rx="5" ry="10"  cx="120" cy="60"
             transform="rotate(45 120 60)"
    />

    <!-- plinth -->
    <polygon points="150,340 300,340 350,398 100,398"/>
</svg>