<svg width="400" height="400" xmlns="http://www.w3.org/2000/svg"
     stroke="white" stroke-width="2" fill="black">

    <polygon points="
      190,80
      190,35
      170,35
      170,20
      190,20
      190,1
      210,1
      210,20
      230,20
      230,35
      210,35
      210,90"/>

    <path d="
        M 10 220
        Q 40,20 150,140
        Q 200,0 250,140
        Q 360,20 390,220
        L 60 220
      "/>

    <polygon points="
      50,340
      10, 220
      150,155
      250,155
      390,220
      350,340"/>

    <!-- plinth -->
    <polygon points="50,340 350,340 390,400 10,400"/>
</svg>