<svg width="400" height="400" xmlns="http://www.w3.org/2000/svg"
     stroke="white" stroke-width="4" fill="black">

    <!-- crown -->
    <path d="M 80,10 L 79,10 Q 200,160 320,10 L 79,10"/>

    <path fill="none" d="
    M 83,10
    Q 109,50 125,15
    Q 145,50 165,15
    Q 185,50 205,14
    Q 225,50 245,14
    Q 265,50 285,16
    Q 290,50 318,10
    "/>


    <rect width="100" height="15" y="75" x="150"/>

    <polygon points="
      150,320
      80, 140
      150,90
      250,90
      320,140
      250,320"/>

    <!-- plinth -->
    <polygon points="150,320 250,320 290,398 110,398"/>
</svg>